<svg id="Capa_1" enable-background="new 0 0 512 512" height="512" viewBox="0 0 512 512" width="512" xmlns="http://www.w3.org/2000/svg"><g><path d="m466 392c8.284 0 15-6.716 15-15v-362c0-8.284-6.716-15-15-15h-60c-8.284 0-15 6.716-15 15v362c0 8.284 6.716 15 15 15zm-45-362h30v332h-30z"/><path d="m346 392c8.284 0 15-6.716 15-15v-300c0-8.284-6.716-15-15-15h-60c-8.284 0-15 6.716-15 15v300c0 8.284 6.716 15 15 15zm-45-300h30v270h-30z"/><path d="m226 392c8.284 0 15-6.716 15-15v-240c0-8.284-6.716-15-15-15h-60c-8.284 0-15 6.716-15 15v240c0 8.284 6.716 15 15 15zm-45-240h30v210h-30z"/><path d="m106 392c8.284 0 15-6.716 15-15v-180c0-8.284-6.716-15-15-15h-60c-8.284 0-15 6.716-15 15v180c0 8.284 6.716 15 15 15zm-45-180h30v150h-30z"/><path d="m497 452h-138.58c-6.192-17.458-22.865-30-42.42-30s-36.228 12.542-42.42 30h-258.58c-8.284 0-15 6.716-15 15s6.716 15 15 15h258.58c6.192 17.458 22.865 30 42.42 30s36.228-12.542 42.42-30h138.58c8.284 0 15-6.716 15-15s-6.716-15-15-15zm-181 30c-8.265 0-14.988-6.719-14.999-14.981 0-.007.001-.013.001-.019s-.001-.013-.001-.019c.011-8.262 6.734-14.981 14.999-14.981 8.271 0 15 6.729 15 15s-6.729 15-15 15z"/></g></svg>