<svg height="469pt" viewBox="0 -7 469.33447 469" width="469pt" xmlns="http://www.w3.org/2000/svg"><path d="m314 456.035156-61.734375-158.800781 9.066406-4.132813c27.351563-12.539062 42.277344-42.433593 35.863281-71.828124-6.414062-29.394532-32.441406-50.351563-62.527343-50.351563-30.089844 0-56.113281 20.957031-62.527344 50.351563-6.417969 29.394531 8.507813 59.289062 35.859375 71.828124l9.066406 4.132813-61.734375 158.800781-10-4.132812c-88.078125-36.066406-145.542969-121.890625-145.332031-217.070313 0-129.332031 105.332031-234.664062 234.667969-234.664062 129.332031 0 234.664062 105.332031 234.664062 234.664062.210938 95.179688-57.25 181.003907-145.332031 217.070313zm-34.800781-148.402344 46.667969 120.132813c74.710937-35.148437 122.328124-110.363281 122.132812-192.933594 0-117.597656-95.734375-213.332031-213.332031-213.332031-117.601563 0-213.335938 95.734375-213.335938 213.332031-.191406 82.570313 47.421875 157.785157 122.136719 192.933594l46.664062-120.132813c-32.601562-19.945312-47.964843-59.136718-37.605468-95.921874 10.363281-36.789063 43.921875-62.203126 82.140625-62.203126s71.777343 25.414063 82.136719 62.203126c10.359374 36.785156-5.003907 75.976562-37.605469 95.921874zm0 0"/></svg>