<svg id="Capa_1" enable-background="new 0 0 512.018 512.018" height="512" viewBox="0 0 512.018 512.018" width="512" xmlns="http://www.w3.org/2000/svg"><path d="m492.009 217.342c11.046 0 20-8.954 20-20v-58.666c0-7.56-4.262-14.473-11.015-17.868l-236-118.667c-5.653-2.842-12.316-2.842-17.97 0l-236 118.667c-6.753 3.396-11.015 10.309-11.015 17.868v58.666c0 11.046 8.954 20 20 20h18.667v176.056c-8.58.57-15.906 6.584-18.05 15.016l-20 78.667c-3.21 12.625 6.34 24.928 19.383 24.928h472c13.027 0 22.597-12.288 19.383-24.928l-20-78.667c-2.199-8.649-9.852-14.75-18.717-15.044v-176.028zm-452-66.337 216-108.61 216 108.61v26.337h-432zm137.333 242.337v-176h156.667v176zm-40-176v176h-58.667v-176zm-91.613 254.667 9.831-38.667h400.897l9.831 38.667zm386.946-78.667h-58.667v-176h58.667z"/></svg>